<svg width="1440" height="1440" viewBox="0 0 1440 1440" fill="none" xmlns="http://www.w3.org/2000/svg">
<path d="M308.036 1147.62C308.036 1148.84 307.013 1149.83 305.751 1149.83C305.156 1149.84 304.582 1149.61 304.154 1149.2C303.727 1148.78 303.48 1148.22 303.469 1147.62C303.469 1146.4 304.492 1145.42 305.751 1145.42C307.013 1145.42 308.036 1146.4 308.036 1147.62Z" fill="#4F4F4F"/>
<path d="M370.79 1132.36C370.779 1132.96 370.533 1133.52 370.105 1133.94C369.677 1134.35 369.103 1134.58 368.508 1134.57C367.912 1134.58 367.337 1134.35 366.908 1133.94C366.48 1133.53 366.233 1132.96 366.223 1132.36C366.223 1131.15 367.246 1130.16 368.508 1130.16C369.767 1130.16 370.79 1131.15 370.79 1132.36Z" fill="#4F4F4F"/>
<path d="M718.333 1321.38C718.333 1322.6 717.31 1323.58 716.048 1323.58C715.753 1323.59 715.46 1323.53 715.186 1323.43C714.912 1323.32 714.662 1323.16 714.45 1322.95C714.238 1322.75 714.068 1322.5 713.951 1322.23C713.833 1321.96 713.77 1321.67 713.766 1321.38C713.77 1321.08 713.833 1320.79 713.951 1320.52C714.068 1320.25 714.238 1320.01 714.45 1319.8C714.662 1319.6 714.912 1319.44 715.186 1319.33C715.46 1319.22 715.753 1319.17 716.048 1319.17C717.31 1319.17 718.333 1320.16 718.333 1321.38Z" fill="#4F4F4F"/>
<path d="M945.368 1188.57C945.363 1188.87 945.3 1189.16 945.183 1189.43C945.065 1189.7 944.896 1189.95 944.684 1190.15C944.472 1190.36 944.222 1190.52 943.948 1190.62C943.673 1190.73 943.38 1190.78 943.086 1190.78C941.824 1190.78 940.801 1189.79 940.801 1188.57C940.801 1187.36 941.824 1186.37 943.086 1186.37C943.38 1186.36 943.673 1186.42 943.948 1186.53C944.222 1186.63 944.472 1186.79 944.684 1187C944.896 1187.2 945.065 1187.45 945.183 1187.72C945.3 1187.99 945.363 1188.28 945.368 1188.57Z" fill="#4F4F4F"/>
<path d="M866.11 1281.56C866.1 1282.16 865.853 1282.72 865.424 1283.14C864.996 1283.55 864.421 1283.78 863.825 1283.77C863.53 1283.77 863.237 1283.72 862.963 1283.61C862.689 1283.5 862.439 1283.34 862.227 1283.14C862.015 1282.93 861.845 1282.69 861.728 1282.42C861.611 1282.15 861.548 1281.85 861.543 1281.56C861.548 1281.27 861.611 1280.97 861.728 1280.7C861.845 1280.43 862.015 1280.19 862.227 1279.98C862.439 1279.78 862.689 1279.62 862.963 1279.51C863.238 1279.4 863.53 1279.35 863.825 1279.36C865.087 1279.36 866.11 1280.34 866.11 1281.56Z" fill="#4F4F4F"/>
<path d="M706.24 1076.43C706.235 1076.72 706.172 1077.01 706.055 1077.28C705.938 1077.55 705.768 1077.8 705.556 1078C705.344 1078.21 705.094 1078.37 704.82 1078.48C704.545 1078.58 704.253 1078.64 703.958 1078.63C703.663 1078.64 703.37 1078.58 703.096 1078.48C702.822 1078.37 702.572 1078.21 702.36 1078C702.148 1077.8 701.978 1077.55 701.861 1077.28C701.744 1077.01 701.681 1076.72 701.676 1076.43C701.681 1076.13 701.744 1075.84 701.861 1075.57C701.978 1075.3 702.148 1075.06 702.36 1074.85C702.572 1074.65 702.822 1074.49 703.096 1074.38C703.37 1074.27 703.663 1074.22 703.958 1074.22C704.253 1074.22 704.545 1074.27 704.82 1074.38C705.094 1074.49 705.344 1074.65 705.556 1074.85C705.768 1075.06 705.938 1075.3 706.055 1075.57C706.172 1075.84 706.235 1076.13 706.24 1076.43Z" fill="#4F4F4F"/>
<path d="M462.965 636.894C462.96 637.189 462.897 637.479 462.78 637.75C462.662 638.02 462.493 638.265 462.281 638.469C462.069 638.674 461.819 638.835 461.544 638.943C461.27 639.051 460.977 639.104 460.683 639.098C460.388 639.104 460.095 639.051 459.821 638.943C459.547 638.835 459.296 638.674 459.084 638.469C458.872 638.265 458.703 638.02 458.586 637.75C458.468 637.479 458.405 637.189 458.4 636.894C458.405 636.599 458.468 636.308 458.586 636.038C458.703 635.768 458.872 635.523 459.084 635.318C459.296 635.114 459.547 634.953 459.821 634.845C460.095 634.737 460.388 634.684 460.683 634.689C460.977 634.684 461.27 634.737 461.544 634.845C461.819 634.953 462.069 635.114 462.281 635.318C462.493 635.523 462.662 635.768 462.78 636.038C462.897 636.308 462.96 636.599 462.965 636.894Z" fill="#4F4F4F"/>
<path d="M601.26 809.289C601.255 809.583 601.192 809.874 601.074 810.144C600.957 810.415 600.788 810.659 600.576 810.864C600.364 811.069 600.113 811.23 599.839 811.338C599.565 811.446 599.272 811.498 598.977 811.493C598.683 811.498 598.39 811.446 598.116 811.338C597.841 811.23 597.591 811.069 597.379 810.864C597.167 810.659 596.998 810.415 596.88 810.144C596.763 809.874 596.7 809.583 596.695 809.289C596.7 808.994 596.763 808.703 596.88 808.433C596.998 808.162 597.167 807.918 597.379 807.713C597.591 807.508 597.841 807.347 598.116 807.24C598.39 807.132 598.683 807.079 598.977 807.084C599.272 807.079 599.565 807.132 599.839 807.24C600.113 807.347 600.364 807.508 600.576 807.713C600.788 807.918 600.957 808.162 601.074 808.433C601.192 808.703 601.255 808.994 601.26 809.289Z" fill="#4F4F4F"/>
<path d="M671.385 704.071C671.38 704.366 671.317 704.657 671.2 704.927C671.082 705.198 670.913 705.442 670.701 705.647C670.489 705.852 670.239 706.014 669.964 706.122C669.69 706.23 669.397 706.283 669.102 706.278C668.808 706.283 668.515 706.23 668.241 706.122C667.966 706.014 667.716 705.852 667.504 705.647C667.292 705.442 667.123 705.198 667.005 704.927C666.888 704.657 666.825 704.366 666.82 704.071C666.825 703.776 666.888 703.485 667.005 703.215C667.123 702.945 667.292 702.7 667.504 702.495C667.716 702.291 667.966 702.13 668.241 702.022C668.515 701.914 668.808 701.861 669.102 701.866C669.397 701.861 669.69 701.914 669.964 702.022C670.238 702.13 670.489 702.291 670.701 702.495C670.913 702.7 671.082 702.945 671.199 703.215C671.317 703.485 671.38 703.776 671.385 704.071Z" fill="#4F4F4F"/>
<path d="M234.973 877.963C234.968 878.258 234.905 878.549 234.787 878.819C234.67 879.089 234.5 879.334 234.289 879.539C234.077 879.743 233.826 879.904 233.552 880.012C233.278 880.12 232.985 880.173 232.69 880.168C232.396 880.173 232.103 880.12 231.829 880.012C231.554 879.904 231.304 879.743 231.092 879.539C230.88 879.334 230.711 879.089 230.593 878.819C230.476 878.549 230.413 878.258 230.408 877.963C230.413 877.668 230.476 877.378 230.593 877.107C230.711 876.837 230.88 876.592 231.092 876.388C231.304 876.183 231.554 876.022 231.829 875.914C232.103 875.806 232.396 875.753 232.69 875.759C232.985 875.753 233.278 875.806 233.552 875.914C233.826 876.022 234.077 876.183 234.289 876.388C234.5 876.592 234.67 876.837 234.787 877.107C234.905 877.378 234.968 877.668 234.973 877.963Z" fill="#4F4F4F"/>
<path d="M334.782 974.989C334.771 975.584 334.525 976.151 334.097 976.565C333.67 976.979 333.095 977.206 332.5 977.197C331.904 977.207 331.329 976.98 330.9 976.566C330.472 976.152 330.225 975.585 330.215 974.989C330.215 973.773 331.238 972.785 332.5 972.785C333.759 972.785 334.782 973.773 334.782 974.989Z" fill="#4F4F4F"/>
<path d="M191.267 1072.02C191.257 1072.61 191.011 1073.18 190.583 1073.59C190.155 1074 189.58 1074.23 188.985 1074.22C188.39 1074.23 187.816 1074 187.388 1073.59C186.96 1073.18 186.714 1072.61 186.703 1072.02C186.708 1071.72 186.771 1071.43 186.888 1071.16C187.006 1070.89 187.175 1070.64 187.387 1070.44C187.599 1070.24 187.849 1070.07 188.124 1069.97C188.398 1069.86 188.691 1069.81 188.985 1069.81C189.28 1069.81 189.573 1069.86 189.847 1069.97C190.121 1070.07 190.371 1070.24 190.583 1070.44C190.795 1070.64 190.965 1070.89 191.082 1071.16C191.2 1071.43 191.263 1071.72 191.267 1072.02Z" fill="#4F4F4F"/>
<path d="M118.206 1116.28C118.195 1116.87 117.949 1117.44 117.521 1117.85C117.093 1118.27 116.519 1118.49 115.924 1118.48C115.328 1118.49 114.753 1118.27 114.324 1117.85C113.896 1117.44 113.649 1116.87 113.639 1116.28C113.639 1115.06 114.662 1114.07 115.924 1114.07C117.183 1114.07 118.206 1115.06 118.206 1116.28Z" fill="#4F4F4F"/>
<path d="M921.228 1033.11C921.224 1033.41 921.161 1033.7 921.043 1033.97C920.926 1034.24 920.756 1034.48 920.544 1034.69C920.332 1034.89 920.082 1035.05 919.808 1035.16C919.534 1035.27 919.241 1035.32 918.946 1035.32C918.652 1035.32 918.359 1035.27 918.084 1035.16C917.81 1035.05 917.56 1034.89 917.348 1034.69C917.136 1034.48 916.967 1034.24 916.849 1033.97C916.732 1033.7 916.669 1033.41 916.664 1033.11C916.664 1031.89 917.684 1030.9 918.946 1030.9C920.208 1030.9 921.228 1031.89 921.228 1033.11Z" fill="#4F4F4F"/>
<path d="M1211.85 1000.35C1211.84 1000.64 1211.78 1000.93 1211.66 1001.2C1211.54 1001.47 1211.37 1001.72 1211.16 1001.92C1210.95 1002.13 1210.7 1002.29 1210.43 1002.4C1210.15 1002.51 1209.86 1002.56 1209.56 1002.55C1209.27 1002.56 1208.98 1002.51 1208.7 1002.4C1208.43 1002.29 1208.18 1002.13 1207.97 1001.92C1207.75 1001.72 1207.58 1001.47 1207.47 1001.2C1207.35 1000.93 1207.29 1000.64 1207.28 1000.35C1207.29 1000.05 1207.35 999.763 1207.47 999.493C1207.58 999.223 1207.75 998.978 1207.97 998.773C1208.18 998.569 1208.43 998.408 1208.7 998.3C1208.98 998.192 1209.27 998.139 1209.56 998.144C1209.86 998.139 1210.15 998.192 1210.43 998.3C1210.7 998.408 1210.95 998.569 1211.16 998.773C1211.37 998.978 1211.54 999.223 1211.66 999.493C1211.78 999.763 1211.84 1000.05 1211.85 1000.35Z" fill="#4F4F4F"/>
<path d="M884.7 1016.57C884.7 1017.79 883.677 1018.78 882.415 1018.78C881.82 1018.79 881.246 1018.56 880.818 1018.15C880.391 1017.73 880.144 1017.17 880.133 1016.57C880.133 1015.36 881.156 1014.37 882.415 1014.37C883.677 1014.37 884.7 1015.36 884.7 1016.57Z" fill="#4F4F4F"/>
<path d="M621.157 384.012C621.157 385.227 620.134 386.216 618.872 386.216C618.277 386.225 617.703 385.998 617.275 385.585C616.848 385.172 616.601 384.606 616.59 384.012C616.595 383.717 616.658 383.426 616.775 383.156C616.892 382.885 617.062 382.641 617.274 382.436C617.486 382.231 617.736 382.07 618.01 381.962C618.284 381.854 618.577 381.802 618.872 381.807C620.134 381.807 621.157 382.793 621.157 384.012Z" fill="#4F4F4F"/>
<path d="M863.825 489.859C863.82 490.153 863.757 490.444 863.64 490.715C863.522 490.985 863.353 491.229 863.141 491.434C862.929 491.639 862.679 491.8 862.405 491.908C862.13 492.016 861.838 492.069 861.543 492.063C860.281 492.063 859.258 491.074 859.258 489.859C859.258 488.64 860.281 487.654 861.543 487.654C861.838 487.649 862.13 487.702 862.405 487.81C862.679 487.918 862.929 488.078 863.141 488.283C863.353 488.488 863.522 488.733 863.64 489.003C863.757 489.273 863.82 489.564 863.825 489.859Z" fill="#4F4F4F"/>
<path d="M916.665 593.737C916.665 594.953 915.642 595.942 914.38 595.942C913.785 595.951 913.211 595.724 912.783 595.311C912.356 594.898 912.109 594.332 912.098 593.737C912.098 592.518 913.121 591.53 914.38 591.53C915.642 591.53 916.665 592.518 916.665 593.737Z" fill="#4F4F4F"/>
<path d="M195.835 196.809C195.83 197.103 195.767 197.394 195.65 197.665C195.532 197.935 195.363 198.18 195.151 198.385C194.939 198.59 194.689 198.751 194.415 198.86C194.14 198.968 193.847 199.021 193.553 199.016C193.258 199.021 192.964 198.968 192.69 198.86C192.415 198.752 192.165 198.591 191.952 198.386C191.74 198.181 191.57 197.936 191.453 197.666C191.335 197.395 191.272 197.104 191.268 196.809C191.268 195.593 192.291 194.604 193.553 194.604C194.812 194.604 195.835 195.593 195.835 196.809Z" fill="#4F4F4F"/>
<path d="M360.221 268.139C360.216 268.434 360.153 268.724 360.035 268.995C359.918 269.265 359.749 269.51 359.537 269.714C359.325 269.919 359.074 270.08 358.8 270.188C358.526 270.296 358.233 270.349 357.938 270.343C357.644 270.349 357.351 270.296 357.077 270.188C356.802 270.08 356.552 269.919 356.34 269.714C356.128 269.51 355.959 269.265 355.841 268.995C355.724 268.724 355.661 268.434 355.656 268.139C355.661 267.844 355.724 267.553 355.841 267.283C355.959 267.013 356.128 266.768 356.34 266.563C356.552 266.359 356.802 266.198 357.077 266.09C357.351 265.982 357.644 265.929 357.938 265.934C358.233 265.929 358.526 265.982 358.8 266.09C359.074 266.198 359.325 266.359 359.537 266.563C359.749 266.768 359.918 267.013 360.035 267.283C360.153 267.553 360.216 267.844 360.221 268.139Z" fill="#4F4F4F"/>
<path d="M407.189 757.73C407.184 758.025 407.122 758.316 407.004 758.586C406.887 758.856 406.717 759.101 406.505 759.306C406.293 759.51 406.043 759.671 405.769 759.779C405.495 759.887 405.202 759.94 404.907 759.935C404.613 759.94 404.32 759.887 404.045 759.779C403.771 759.671 403.521 759.51 403.309 759.306C403.097 759.101 402.928 758.856 402.81 758.586C402.693 758.316 402.63 758.025 402.625 757.73C402.63 757.436 402.693 757.145 402.81 756.874C402.928 756.604 403.097 756.36 403.309 756.155C403.521 755.95 403.771 755.789 404.045 755.681C404.32 755.573 404.613 755.52 404.907 755.526C405.202 755.52 405.495 755.573 405.769 755.681C406.043 755.789 406.293 755.95 406.505 756.155C406.717 756.36 406.887 756.604 407.004 756.874C407.122 757.145 407.184 757.436 407.189 757.73Z" fill="#4F4F4F"/>
<path d="M675.952 920.807C675.947 921.101 675.884 921.392 675.767 921.663C675.649 921.933 675.48 922.177 675.268 922.382C675.056 922.587 674.806 922.748 674.532 922.856C674.257 922.964 673.964 923.017 673.67 923.011C672.408 923.011 671.385 922.025 671.385 920.807C671.385 919.588 672.408 918.602 673.67 918.602C673.964 918.597 674.257 918.65 674.532 918.758C674.806 918.866 675.056 919.027 675.268 919.231C675.48 919.436 675.649 919.681 675.767 919.951C675.884 920.221 675.947 920.512 675.952 920.807Z" fill="#4F4F4F"/>
<path d="M375.356 404.491C375.346 405.086 375.099 405.653 374.671 406.067C374.242 406.481 373.667 406.708 373.071 406.698C372.476 406.707 371.902 406.48 371.474 406.066C371.046 405.652 370.8 405.086 370.789 404.491C370.789 403.275 371.812 402.286 373.071 402.286C374.333 402.286 375.356 403.275 375.356 404.491Z" fill="#4F4F4F"/>
<path d="M200.401 527.155C200.396 527.45 200.333 527.741 200.216 528.011C200.098 528.282 199.928 528.527 199.716 528.731C199.504 528.936 199.253 529.097 198.979 529.205C198.704 529.313 198.411 529.365 198.116 529.359C197.821 529.365 197.529 529.312 197.254 529.204C196.98 529.096 196.73 528.935 196.518 528.73C196.306 528.526 196.136 528.281 196.019 528.011C195.902 527.74 195.839 527.45 195.834 527.155C195.839 526.86 195.902 526.569 196.019 526.299C196.136 526.029 196.306 525.784 196.518 525.58C196.73 525.375 196.98 525.214 197.254 525.106C197.529 524.998 197.821 524.945 198.116 524.95C198.411 524.945 198.704 524.997 198.979 525.105C199.253 525.213 199.504 525.374 199.716 525.578C199.928 525.783 200.098 526.028 200.216 526.298C200.333 526.569 200.396 526.86 200.401 527.155Z" fill="#4F4F4F"/>
<path d="M159.303 341.72C159.298 342.014 159.235 342.305 159.117 342.576C159 342.846 158.831 343.09 158.619 343.295C158.407 343.5 158.156 343.661 157.882 343.769C157.608 343.877 157.315 343.93 157.02 343.924C156.726 343.93 156.433 343.877 156.159 343.769C155.884 343.661 155.634 343.5 155.422 343.295C155.21 343.09 155.041 342.846 154.923 342.576C154.806 342.305 154.743 342.014 154.738 341.72C154.743 341.425 154.806 341.134 154.923 340.864C155.041 340.594 155.21 340.349 155.422 340.144C155.634 339.94 155.884 339.779 156.159 339.671C156.433 339.563 156.726 339.51 157.02 339.515C157.315 339.51 157.608 339.563 157.882 339.671C158.156 339.779 158.407 339.94 158.619 340.144C158.831 340.349 159 340.594 159.117 340.864C159.235 341.134 159.298 341.425 159.303 341.72Z" fill="#4F4F4F"/>
<path d="M271.505 680.683C271.494 681.278 271.248 681.844 270.82 682.258C270.392 682.671 269.817 682.898 269.223 682.888C268.928 682.893 268.635 682.84 268.36 682.732C268.086 682.624 267.836 682.463 267.623 682.259C267.411 682.054 267.241 681.809 267.124 681.539C267.006 681.269 266.943 680.978 266.938 680.683C266.938 679.464 267.961 678.476 269.223 678.476C270.484 678.476 271.505 679.464 271.505 680.683Z" fill="#4F4F4F"/>
<path d="M570.927 419.293C570.922 419.588 570.859 419.878 570.741 420.149C570.624 420.419 570.455 420.664 570.243 420.868C570.031 421.073 569.78 421.234 569.506 421.342C569.232 421.45 568.939 421.503 568.644 421.497C567.383 421.497 566.359 420.512 566.359 419.293C566.359 418.074 567.383 417.088 568.644 417.088C568.939 417.083 569.232 417.136 569.506 417.244C569.78 417.352 570.031 417.513 570.243 417.717C570.455 417.922 570.624 418.167 570.741 418.437C570.859 418.707 570.922 418.998 570.927 419.293Z" fill="#4F4F4F"/>
<path d="M949.934 358.81C949.934 360.026 948.911 361.015 947.649 361.015C947.055 361.024 946.481 360.797 946.053 360.384C945.625 359.971 945.379 359.405 945.367 358.81C945.367 357.591 946.39 356.603 947.649 356.603C948.911 356.603 949.934 357.591 949.934 358.81Z" fill="#4F4F4F"/>
<path d="M787.503 658.629C787.492 659.224 787.246 659.791 786.818 660.205C786.39 660.618 785.816 660.846 785.221 660.836C784.625 660.846 784.05 660.62 783.621 660.206C783.193 659.792 782.946 659.225 782.936 658.629C782.936 657.413 783.959 656.424 785.221 656.424C786.48 656.424 787.503 657.413 787.503 658.629Z" fill="#4F4F4F"/>
<path d="M1135.85 759.935C1135.84 760.531 1135.59 761.098 1135.16 761.511C1134.74 761.925 1134.16 762.152 1133.57 762.142C1132.97 762.152 1132.4 761.924 1131.97 761.51C1131.54 761.097 1131.29 760.53 1131.28 759.935C1131.28 758.719 1132.31 757.73 1133.57 757.73C1134.83 757.73 1135.85 758.719 1135.85 759.935Z" fill="#4F4F4F"/>
<path d="M880.134 408.903C880.122 409.497 879.876 410.063 879.448 410.476C879.02 410.889 878.446 411.116 877.851 411.107C876.59 411.107 875.566 410.118 875.566 408.903C875.566 407.684 876.59 406.698 877.851 406.698C878.146 406.693 878.439 406.745 878.713 406.853C878.987 406.961 879.238 407.122 879.45 407.327C879.662 407.532 879.831 407.776 879.948 408.047C880.066 408.317 880.129 408.608 880.134 408.903Z" fill="#4F4F4F"/>
<path d="M846.211 221.447C846.206 221.742 846.144 222.033 846.026 222.303C845.909 222.574 845.74 222.819 845.528 223.024C845.316 223.229 845.065 223.39 844.791 223.498C844.517 223.607 844.223 223.659 843.929 223.654C843.634 223.659 843.341 223.607 843.066 223.498C842.792 223.39 842.541 223.229 842.329 223.024C842.117 222.819 841.948 222.574 841.831 222.303C841.714 222.033 841.651 221.742 841.646 221.447C841.651 221.152 841.714 220.861 841.832 220.591C841.949 220.321 842.118 220.076 842.33 219.871C842.542 219.666 842.793 219.506 843.067 219.398C843.341 219.29 843.634 219.237 843.929 219.242C844.223 219.237 844.516 219.29 844.79 219.398C845.065 219.506 845.315 219.666 845.527 219.871C845.739 220.076 845.908 220.321 846.026 220.591C846.143 220.861 846.206 221.152 846.211 221.447Z" fill="#4F4F4F"/>
<path d="M768.911 148.363C768.906 148.658 768.842 148.949 768.725 149.219C768.607 149.489 768.437 149.734 768.225 149.939C768.013 150.143 767.762 150.304 767.488 150.412C767.214 150.52 766.921 150.573 766.626 150.568C766.031 150.578 765.456 150.351 765.029 149.938C764.601 149.524 764.354 148.958 764.344 148.363C764.349 148.068 764.412 147.778 764.529 147.507C764.646 147.237 764.816 146.992 765.028 146.788C765.24 146.583 765.49 146.422 765.764 146.314C766.038 146.206 766.331 146.153 766.626 146.159C767.888 146.159 768.911 147.144 768.911 148.363Z" fill="#4F4F4F"/>
<path d="M1101.68 317.703C1101.68 318.921 1100.66 319.907 1099.4 319.907C1099.1 319.912 1098.81 319.86 1098.54 319.752C1098.26 319.644 1098.01 319.483 1097.8 319.278C1097.59 319.073 1097.42 318.829 1097.3 318.558C1097.18 318.288 1097.12 317.997 1097.12 317.703C1097.12 316.487 1098.14 315.498 1099.4 315.498C1100.66 315.498 1101.68 316.487 1101.68 317.703Z" fill="#4F4F4F"/>
<path d="M1060.18 221.447C1060.17 222.042 1059.92 222.609 1059.49 223.023C1059.06 223.437 1058.49 223.664 1057.89 223.654C1057.6 223.659 1057.31 223.606 1057.03 223.498C1056.76 223.389 1056.51 223.228 1056.3 223.023C1056.08 222.818 1055.91 222.573 1055.8 222.303C1055.68 222.032 1055.62 221.742 1055.61 221.447C1055.61 220.231 1056.63 219.242 1057.89 219.242C1059.16 219.242 1060.18 220.231 1060.18 221.447Z" fill="#4F4F4F"/>
<path d="M1305.46 346.129C1305.45 346.424 1305.39 346.714 1305.27 346.985C1305.15 347.255 1304.98 347.5 1304.77 347.704C1304.56 347.909 1304.31 348.07 1304.04 348.178C1303.76 348.286 1303.47 348.339 1303.17 348.333C1301.91 348.333 1300.89 347.348 1300.89 346.129C1300.89 344.913 1301.91 343.924 1303.17 343.924C1304.43 343.924 1305.46 344.913 1305.46 346.129Z" fill="#4F4F4F"/>
<path d="M1178.96 598.146C1178.96 598.441 1178.89 598.732 1178.78 599.002C1178.66 599.272 1178.49 599.517 1178.28 599.722C1178.07 599.926 1177.82 600.087 1177.54 600.195C1177.27 600.303 1176.98 600.356 1176.68 600.351C1176.39 600.356 1176.09 600.303 1175.82 600.195C1175.54 600.087 1175.29 599.926 1175.08 599.722C1174.87 599.517 1174.7 599.272 1174.58 599.002C1174.47 598.732 1174.4 598.441 1174.4 598.146C1174.4 597.851 1174.47 597.561 1174.58 597.29C1174.7 597.02 1174.87 596.775 1175.08 596.571C1175.29 596.366 1175.54 596.205 1175.82 596.097C1176.09 595.989 1176.39 595.936 1176.68 595.942C1176.98 595.936 1177.27 595.989 1177.54 596.097C1177.82 596.205 1178.07 596.366 1178.28 596.571C1178.49 596.775 1178.66 597.02 1178.78 597.29C1178.89 597.561 1178.96 597.851 1178.96 598.146Z" fill="#4F4F4F"/>
<path d="M899.764 819.369C899.754 819.964 899.508 820.53 899.08 820.944C898.652 821.358 898.077 821.585 897.482 821.576C896.887 821.586 896.311 821.359 895.883 820.945C895.454 820.531 895.208 819.964 895.197 819.369C895.197 818.153 896.221 817.164 897.482 817.164C898.741 817.164 899.764 818.153 899.764 819.369Z" fill="#4F4F4F"/>
<path d="M1241.59 360.463C1241.58 360.757 1241.52 361.048 1241.4 361.319C1241.29 361.589 1241.12 361.833 1240.9 362.038C1240.69 362.243 1240.44 362.404 1240.17 362.512C1239.89 362.62 1239.6 362.673 1239.31 362.667C1239.01 362.673 1238.72 362.62 1238.44 362.512C1238.17 362.404 1237.92 362.243 1237.71 362.038C1237.5 361.833 1237.33 361.589 1237.21 361.319C1237.09 361.048 1237.03 360.757 1237.02 360.463C1237.03 360.168 1237.09 359.877 1237.21 359.607C1237.33 359.337 1237.5 359.092 1237.71 358.887C1237.92 358.683 1238.17 358.522 1238.44 358.414C1238.72 358.306 1239.01 358.253 1239.31 358.258C1239.6 358.253 1239.89 358.306 1240.17 358.414C1240.44 358.522 1240.69 358.683 1240.9 358.887C1241.12 359.092 1241.29 359.337 1241.4 359.607C1241.52 359.877 1241.58 360.168 1241.59 360.463Z" fill="#4F4F4F"/>
<path d="M1218.69 658.629C1218.69 658.924 1218.63 659.215 1218.51 659.485C1218.39 659.756 1218.22 660 1218.01 660.205C1217.8 660.41 1217.55 660.572 1217.27 660.68C1217 660.788 1216.71 660.841 1216.41 660.836C1216.12 660.841 1215.82 660.788 1215.55 660.68C1215.27 660.572 1215.02 660.41 1214.81 660.205C1214.6 660 1214.43 659.756 1214.31 659.485C1214.2 659.215 1214.13 658.924 1214.13 658.629C1214.13 658.334 1214.2 658.043 1214.31 657.773C1214.43 657.503 1214.6 657.258 1214.81 657.054C1215.02 656.849 1215.28 656.688 1215.55 656.58C1215.82 656.472 1216.12 656.419 1216.41 656.424C1216.71 656.419 1217 656.472 1217.27 656.58C1217.55 656.688 1217.8 656.849 1218.01 657.054C1218.22 657.258 1218.39 657.503 1218.51 657.773C1218.63 658.043 1218.69 658.334 1218.69 658.629Z" fill="#4F4F4F"/>
<path d="M984.345 904.268C984.345 905.487 983.321 906.473 982.06 906.473C981.765 906.478 981.472 906.425 981.198 906.317C980.924 906.209 980.673 906.048 980.461 905.844C980.249 905.639 980.08 905.394 979.963 905.124C979.845 904.854 979.782 904.563 979.777 904.268C979.782 903.974 979.845 903.683 979.963 903.412C980.08 903.142 980.249 902.898 980.461 902.693C980.673 902.488 980.924 902.327 981.198 902.219C981.472 902.111 981.765 902.058 982.06 902.064C983.321 902.064 984.345 903.05 984.345 904.268Z" fill="#4F4F4F"/>
<path d="M1214.13 172.24C1214.12 172.835 1213.87 173.401 1213.44 173.814C1213.01 174.228 1212.44 174.454 1211.84 174.444C1211.25 174.454 1210.68 174.227 1210.25 173.814C1209.82 173.401 1209.57 172.834 1209.56 172.24C1209.56 171.021 1210.59 170.032 1211.84 170.032C1213.11 170.032 1214.13 171.021 1214.13 172.24Z" fill="#4F4F4F"/>
<path d="M1014.03 537.111C1014.02 537.406 1013.96 537.697 1013.84 537.967C1013.72 538.238 1013.55 538.482 1013.34 538.687C1013.13 538.892 1012.88 539.053 1012.6 539.16C1012.33 539.268 1012.04 539.321 1011.74 539.316C1011.45 539.321 1011.16 539.268 1010.88 539.16C1010.61 539.053 1010.36 538.892 1010.14 538.687C1009.93 538.482 1009.76 538.238 1009.65 537.967C1009.53 537.697 1009.47 537.406 1009.46 537.111C1009.47 536.817 1009.53 536.526 1009.65 536.256C1009.76 535.985 1009.93 535.741 1010.14 535.536C1010.36 535.331 1010.61 535.17 1010.88 535.062C1011.16 534.954 1011.45 534.901 1011.74 534.907C1012.04 534.901 1012.33 534.954 1012.6 535.062C1012.88 535.17 1013.13 535.331 1013.34 535.536C1013.55 535.741 1013.72 535.985 1013.84 536.256C1013.96 536.526 1014.02 536.817 1014.03 537.111Z" fill="#4F4F4F"/>
<path d="M1280.18 829.451C1280.17 829.746 1280.11 830.037 1279.99 830.307C1279.88 830.578 1279.71 830.822 1279.49 831.027C1279.28 831.232 1279.03 831.393 1278.76 831.501C1278.48 831.609 1278.19 831.661 1277.9 831.656C1277.6 831.661 1277.31 831.609 1277.03 831.501C1276.76 831.393 1276.51 831.232 1276.3 831.027C1276.09 830.822 1275.92 830.578 1275.8 830.307C1275.68 830.037 1275.62 829.746 1275.61 829.451C1275.61 828.233 1276.63 827.244 1277.9 827.244C1279.16 827.244 1280.18 828.233 1280.18 829.451Z" fill="#4F4F4F"/>
<path d="M247.53 356.603C247.53 359.954 244.719 362.667 241.253 362.667C237.784 362.667 234.973 359.954 234.973 356.603C234.973 353.254 237.784 350.541 241.253 350.541C244.719 350.541 247.53 353.254 247.53 356.603Z" fill="#4F4F4F"/>
<path d="M688.509 560.738C688.509 564.086 685.698 566.802 682.231 566.802C678.762 566.802 675.951 564.086 675.951 560.738C675.951 557.389 678.762 554.673 682.231 554.673C685.698 554.673 688.509 557.389 688.509 560.738Z" fill="#4F4F4F"/>
<path d="M561.796 1024.84C561.796 1028.19 558.982 1030.9 555.516 1030.9C552.049 1030.9 549.238 1028.19 549.238 1024.84C549.238 1021.49 552.049 1018.78 555.516 1018.78C558.982 1018.78 561.796 1021.49 561.796 1024.84Z" fill="#4F4F4F"/>
<path d="M204.397 1216.85C204.397 1220.2 201.586 1222.91 198.117 1222.91C194.651 1222.91 191.84 1220.2 191.84 1216.85C191.84 1213.5 194.651 1210.78 198.117 1210.78C201.586 1210.78 204.397 1213.5 204.397 1216.85Z" fill="#4F4F4F"/>
<path d="M996.903 747.257C996.903 750.605 994.092 753.321 990.623 753.321C987.157 753.321 984.346 750.605 984.346 747.257C984.346 743.908 987.157 741.192 990.623 741.192C994.092 741.192 996.903 743.908 996.903 747.257Z" fill="#4F4F4F"/>
<path d="M1097.12 1201.25C1097.12 1204.6 1094.31 1207.32 1090.84 1207.32C1087.37 1207.32 1084.56 1204.6 1084.56 1201.25C1084.56 1197.9 1087.37 1195.19 1090.84 1195.19C1094.31 1195.19 1097.12 1197.9 1097.12 1201.25Z" fill="#4F4F4F"/>
<path d="M1156.07 912.537C1156.07 915.886 1153.26 918.602 1149.79 918.602C1146.33 918.602 1143.51 915.886 1143.51 912.537C1143.51 909.189 1146.33 906.473 1149.79 906.473C1153.26 906.473 1156.07 909.189 1156.07 912.537Z" fill="#4F4F4F"/>
<path d="M781.468 1221.42C781.468 1224.76 778.657 1227.48 775.188 1227.48C771.721 1227.48 768.91 1224.76 768.91 1221.42C768.91 1218.06 771.721 1215.35 775.188 1215.35C778.657 1215.35 781.468 1218.06 781.468 1221.42Z" fill="#4F4F4F"/>
<path fill-rule="evenodd" clip-rule="evenodd" d="M783.857 807.975L762.984 828.135L761.139 826.353L782.011 806.193L783.857 807.975Z" fill="#4F4F4F"/>
<path fill-rule="evenodd" clip-rule="evenodd" d="M369.594 530.239L348.982 509.829L350.851 508.07L371.462 528.48L369.594 530.239Z" fill="#4F4F4F"/>
<path fill-rule="evenodd" clip-rule="evenodd" d="M1117.84 1127.69L1093.66 1111.34L1095.15 1109.27L1119.33 1125.63L1117.84 1127.69Z" fill="#4F4F4F"/>
<path fill-rule="evenodd" clip-rule="evenodd" d="M727.392 232.863L703.211 216.509L704.708 214.442L728.887 230.797L727.392 232.863Z" fill="#4F4F4F"/>
<path fill-rule="evenodd" clip-rule="evenodd" d="M1168.94 256.679L1162.69 284.545L1160.14 284.011L1166.39 256.145L1168.94 256.679Z" fill="#4F4F4F"/>
<path d="M460.682 883.005C460.678 883.299 460.615 883.59 460.497 883.86C460.38 884.131 460.21 884.375 459.998 884.58C459.786 884.785 459.536 884.946 459.262 885.054C458.988 885.162 458.695 885.214 458.4 885.209C457.138 885.209 456.115 884.223 456.115 883.005C456.115 881.786 457.138 880.8 458.4 880.8C458.695 880.795 458.988 880.847 459.262 880.955C459.536 881.063 459.786 881.224 459.998 881.429C460.21 881.634 460.38 881.878 460.497 882.149C460.615 882.419 460.678 882.71 460.682 883.005Z" fill="#4F4F4F"/>
<path d="M330.215 1192.98C330.21 1193.28 330.147 1193.57 330.03 1193.84C329.912 1194.11 329.743 1194.35 329.531 1194.56C329.319 1194.76 329.069 1194.93 328.794 1195.03C328.52 1195.14 328.227 1195.19 327.933 1195.19C327.638 1195.19 327.345 1195.14 327.071 1195.03C326.797 1194.93 326.546 1194.76 326.334 1194.56C326.122 1194.35 325.953 1194.11 325.836 1193.84C325.718 1193.57 325.655 1193.28 325.65 1192.98C325.655 1192.69 325.718 1192.4 325.836 1192.13C325.953 1191.86 326.122 1191.61 326.334 1191.41C326.546 1191.2 326.797 1191.04 327.071 1190.93C327.345 1190.83 327.638 1190.77 327.933 1190.78C328.227 1190.77 328.52 1190.83 328.794 1190.93C329.069 1191.04 329.319 1191.2 329.531 1191.41C329.743 1191.61 329.912 1191.86 330.03 1192.13C330.147 1192.4 330.21 1192.69 330.215 1192.98Z" fill="#4F4F4F"/>
<path d="M1122.48 417.172C1122.48 420.52 1119.66 423.236 1116.2 423.236C1112.73 423.236 1109.92 420.52 1109.92 417.172C1109.92 413.823 1112.73 411.107 1116.2 411.107C1119.66 411.107 1122.48 413.823 1122.48 417.172Z" fill="#4F4F4F"/>
<path d="M342.772 829.451C342.772 832.8 339.961 835.513 336.495 835.513C333.026 835.513 330.215 832.8 330.215 829.451C330.215 826.1 333.026 823.387 336.495 823.387C339.961 823.387 342.772 826.1 342.772 829.451Z" fill="#4F4F4F"/>
<path d="M506.181 313.845C506.181 317.194 503.37 319.907 499.903 319.907C496.434 319.907 493.623 317.194 493.623 313.845C493.623 310.494 496.434 307.781 499.903 307.781C503.37 307.781 506.181 310.494 506.181 313.845Z" fill="#4F4F4F"/>
<path d="M135.331 664.929C135.331 668.281 132.517 670.994 129.051 670.994C125.584 670.994 122.773 668.281 122.773 664.929C122.773 661.581 125.584 658.868 129.051 658.868C132.517 658.868 135.331 661.581 135.331 664.929Z" fill="#4F4F4F"/>
<path fill-rule="evenodd" clip-rule="evenodd" d="M119.129 856.49L98.2535 876.65L96.4082 874.868L117.284 854.708L119.129 856.49Z" fill="#4F4F4F"/>
<path fill-rule="evenodd" clip-rule="evenodd" d="M553.366 704.962L532.49 725.125L530.645 723.343L551.52 703.18L553.366 704.962Z" fill="#4F4F4F"/>
<path d="M58.1924 1228.98C58.1924 1232.32 55.3814 1235.04 51.9121 1235.04C48.4458 1235.04 45.6348 1232.32 45.6348 1228.98C45.6348 1225.63 48.4458 1222.91 51.9121 1222.91C55.3814 1222.91 58.1924 1225.63 58.1924 1228.98Z" fill="#4F4F4F"/>
<path d="M28.8367 1026.65C28.8319 1026.95 28.7688 1027.24 28.6513 1027.51C28.5338 1027.78 28.364 1028.03 28.1517 1028.23C27.9394 1028.44 27.6888 1028.6 27.4143 1028.7C27.1397 1028.81 26.8466 1028.86 26.5517 1028.86C26.257 1028.86 25.9642 1028.81 25.69 1028.7C25.4157 1028.6 25.1655 1028.43 24.9535 1028.23C24.7416 1028.02 24.572 1027.78 24.4547 1027.51C24.3373 1027.24 24.2744 1026.95 24.2695 1026.65C24.2744 1026.36 24.3373 1026.07 24.4547 1025.8C24.572 1025.53 24.7416 1025.28 24.9535 1025.08C25.1655 1024.87 25.4157 1024.71 25.69 1024.6C25.9642 1024.5 26.257 1024.44 26.5517 1024.45C26.8466 1024.44 27.1397 1024.5 27.4143 1024.6C27.6888 1024.71 27.9394 1024.87 28.1517 1025.08C28.364 1025.28 28.5338 1025.53 28.6513 1025.8C28.7688 1026.07 28.8319 1026.36 28.8367 1026.65Z" fill="#4F4F4F"/>
<path d="M62.7557 217.679C62.7509 217.973 62.688 218.264 62.5706 218.535C62.4533 218.805 62.2838 219.05 62.0719 219.255C61.86 219.46 61.6097 219.621 61.3355 219.729C61.0612 219.838 60.7684 219.891 60.4736 219.886C60.1788 219.891 59.8859 219.838 59.6116 219.729C59.3374 219.621 59.0871 219.46 58.8752 219.255C58.6633 219.05 58.4938 218.805 58.3765 218.535C58.2592 218.264 58.1963 217.973 58.1914 217.679C58.1963 217.384 58.2592 217.093 58.3765 216.823C58.4939 216.552 58.6634 216.308 58.8754 216.103C59.0874 215.898 59.3376 215.737 59.6118 215.629C59.8861 215.522 60.1789 215.469 60.4736 215.474C60.7682 215.469 61.061 215.522 61.3353 215.629C61.6095 215.737 61.8598 215.898 62.0717 216.103C62.2837 216.308 62.4532 216.552 62.5706 216.823C62.6879 217.093 62.7509 217.384 62.7557 217.679Z" fill="#4F4F4F"/>
<path d="M5.35234 512.539C5.34748 512.834 5.28456 513.125 5.1672 513.395C5.04983 513.666 4.88032 513.91 4.66835 514.115C4.45639 514.32 4.20613 514.481 3.9319 514.588C3.65767 514.696 3.36485 514.749 3.07019 514.744C2.77528 514.75 2.48215 514.697 2.20759 514.589C1.93303 514.482 1.68243 514.321 1.47016 514.116C1.25789 513.911 1.08812 513.666 0.970571 513.396C0.853025 513.125 0.790017 512.834 0.785156 512.539C0.790017 512.245 0.853025 511.953 0.970571 511.683C1.08812 511.412 1.25789 511.168 1.47016 510.963C1.68243 510.758 1.93303 510.597 2.20759 510.489C2.48215 510.382 2.77528 510.329 3.07019 510.335C3.36485 510.33 3.65767 510.382 3.9319 510.49C4.20613 510.598 4.45639 510.759 4.66835 510.964C4.88032 511.169 5.04983 511.413 5.1672 511.684C5.28456 511.954 5.34748 512.245 5.35234 512.539Z" fill="#4F4F4F"/>
<path d="M1440 664.929C1440 668.281 1437.19 670.994 1433.72 670.994C1430.25 670.994 1427.44 668.281 1427.44 664.929C1427.44 661.581 1430.25 658.868 1433.72 658.868C1437.19 658.868 1440 661.581 1440 664.929Z" fill="#4F4F4F"/>
<path fill-rule="evenodd" clip-rule="evenodd" d="M1423.8 856.49L1402.93 876.65L1401.08 874.868L1421.95 854.708L1423.8 856.49Z" fill="#4F4F4F"/>
<path d="M1362.86 1228.98C1362.86 1232.32 1360.05 1235.04 1356.58 1235.04C1353.11 1235.04 1350.3 1232.32 1350.3 1228.98C1350.3 1225.63 1353.11 1222.91 1356.58 1222.91C1360.05 1222.91 1362.86 1225.63 1362.86 1228.98Z" fill="#4F4F4F"/>
<path d="M1333.51 1026.65C1333.5 1026.95 1333.44 1027.24 1333.32 1027.51C1333.2 1027.78 1333.03 1028.02 1332.82 1028.23C1332.61 1028.43 1332.36 1028.6 1332.09 1028.7C1331.81 1028.81 1331.52 1028.86 1331.22 1028.86C1329.96 1028.86 1328.94 1027.87 1328.94 1026.65C1328.94 1025.44 1329.96 1024.45 1331.22 1024.45C1331.52 1024.44 1331.81 1024.5 1332.09 1024.6C1332.36 1024.71 1332.61 1024.87 1332.82 1025.08C1333.03 1025.28 1333.2 1025.53 1333.32 1025.8C1333.44 1026.07 1333.5 1026.36 1333.51 1026.65Z" fill="#4F4F4F"/>
<path d="M1246.16 1285.97C1246.14 1286.57 1245.9 1287.13 1245.47 1287.55C1245.04 1287.96 1244.47 1288.19 1243.87 1288.18C1242.61 1288.18 1241.59 1287.19 1241.59 1285.97C1241.59 1284.75 1242.61 1283.77 1243.87 1283.77C1244.17 1283.76 1244.46 1283.81 1244.73 1283.92C1245.01 1284.03 1245.26 1284.19 1245.47 1284.4C1245.68 1284.6 1245.85 1284.85 1245.97 1285.12C1246.09 1285.39 1246.15 1285.68 1246.16 1285.97Z" fill="#4F4F4F"/>
<path d="M1216.09 1192.98C1216.09 1194.2 1215.06 1195.19 1213.8 1195.19C1213.51 1195.19 1213.21 1195.14 1212.94 1195.03C1212.67 1194.93 1212.42 1194.76 1212.2 1194.56C1211.99 1194.35 1211.82 1194.11 1211.7 1193.84C1211.59 1193.57 1211.52 1193.28 1211.52 1192.98C1211.52 1192.69 1211.59 1192.4 1211.7 1192.13C1211.82 1191.86 1211.99 1191.61 1212.2 1191.41C1212.42 1191.2 1212.67 1191.04 1212.94 1190.93C1213.21 1190.83 1213.51 1190.77 1213.8 1190.78C1215.06 1190.78 1216.09 1191.77 1216.09 1192.98Z" fill="#4F4F4F"/>
<path d="M1367.43 217.679C1367.42 217.973 1367.36 218.264 1367.24 218.535C1367.13 218.805 1366.96 219.05 1366.74 219.255C1366.53 219.46 1366.28 219.621 1366.01 219.729C1365.73 219.838 1365.44 219.891 1365.15 219.886C1364.55 219.896 1363.98 219.669 1363.55 219.255C1363.12 218.841 1362.87 218.274 1362.86 217.679C1362.86 216.463 1363.88 215.474 1365.15 215.474C1366.41 215.474 1367.43 216.463 1367.43 217.679Z" fill="#4F4F4F"/>
<path d="M1310.02 512.539C1310.02 513.758 1309 514.744 1307.74 514.744C1307.44 514.749 1307.15 514.696 1306.88 514.589C1306.6 514.481 1306.35 514.32 1306.14 514.115C1305.93 513.91 1305.76 513.666 1305.64 513.395C1305.52 513.125 1305.46 512.834 1305.46 512.539C1305.46 512.245 1305.52 511.954 1305.64 511.684C1305.76 511.413 1305.93 511.169 1306.14 510.964C1306.35 510.759 1306.6 510.598 1306.88 510.49C1307.15 510.382 1307.44 510.33 1307.74 510.335C1309 510.335 1310.02 511.321 1310.02 512.539Z" fill="#4F4F4F"/>
<path d="M1090.84 1311.43C1090.84 1312.65 1089.82 1313.64 1088.55 1313.64C1088.26 1313.64 1087.97 1313.59 1087.69 1313.48C1087.42 1313.37 1087.17 1313.21 1086.96 1313.01C1086.74 1312.8 1086.57 1312.56 1086.46 1312.29C1086.34 1312.02 1086.28 1311.73 1086.27 1311.43C1086.28 1311.14 1086.34 1310.85 1086.46 1310.58C1086.57 1310.31 1086.74 1310.06 1086.96 1309.86C1087.17 1309.65 1087.42 1309.49 1087.69 1309.38C1087.97 1309.27 1088.26 1309.22 1088.55 1309.23C1089.82 1309.23 1090.84 1310.21 1090.84 1311.43Z" fill="#4F4F4F"/>
<path d="M1328.29 1358.68C1328.28 1358.98 1328.22 1359.27 1328.1 1359.54C1327.98 1359.81 1327.82 1360.06 1327.6 1360.26C1327.39 1360.47 1327.14 1360.63 1326.87 1360.74C1326.59 1360.84 1326.3 1360.9 1326 1360.89C1325.71 1360.9 1325.42 1360.84 1325.14 1360.74C1324.87 1360.63 1324.62 1360.47 1324.41 1360.26C1324.19 1360.06 1324.03 1359.81 1323.91 1359.54C1323.79 1359.27 1323.73 1358.98 1323.72 1358.68C1323.73 1358.39 1323.79 1358.1 1323.91 1357.83C1324.03 1357.56 1324.19 1357.31 1324.41 1357.11C1324.62 1356.9 1324.87 1356.74 1325.14 1356.64C1325.42 1356.53 1325.71 1356.47 1326 1356.48C1326.3 1356.47 1326.59 1356.53 1326.87 1356.64C1327.14 1356.74 1327.39 1356.9 1327.6 1357.11C1327.81 1357.31 1327.98 1357.56 1328.1 1357.83C1328.22 1358.1 1328.28 1358.39 1328.29 1358.68Z" fill="#4F4F4F"/>
<path d="M947.649 1364.75C947.649 1368.1 944.838 1370.81 941.372 1370.81C937.903 1370.81 935.092 1368.1 935.092 1364.75C935.092 1361.4 937.903 1358.68 941.372 1358.68C944.838 1358.68 947.649 1361.4 947.649 1364.75Z" fill="#4F4F4F"/>
<path fill-rule="evenodd" clip-rule="evenodd" d="M543.599 1260.08L557.191 1285.39L554.875 1286.55L541.285 1261.24L543.599 1260.08Z" fill="#4F4F4F"/>
<path d="M495.909 1434.92C495.909 1436.14 494.886 1437.13 493.624 1437.13C493.029 1437.13 492.455 1436.91 492.027 1436.49C491.6 1436.08 491.353 1435.52 491.342 1434.92C491.347 1434.63 491.41 1434.34 491.527 1434.07C491.644 1433.8 491.814 1433.55 492.026 1433.35C492.238 1433.14 492.488 1432.98 492.762 1432.87C493.036 1432.76 493.329 1432.71 493.624 1432.72C494.886 1432.72 495.909 1433.7 495.909 1434.92Z" fill="#4F4F4F"/>
<path d="M122.774 1339.15C122.769 1339.45 122.706 1339.74 122.589 1340.01C122.471 1340.28 122.301 1340.53 122.089 1340.73C121.877 1340.94 121.626 1341.1 121.352 1341.2C121.077 1341.31 120.784 1341.36 120.489 1341.36C120.195 1341.36 119.902 1341.31 119.627 1341.2C119.353 1341.1 119.103 1340.93 118.891 1340.73C118.679 1340.52 118.51 1340.28 118.392 1340.01C118.275 1339.74 118.212 1339.45 118.207 1339.15C118.212 1338.86 118.275 1338.57 118.392 1338.3C118.51 1338.03 118.679 1337.78 118.891 1337.58C119.103 1337.37 119.353 1337.21 119.627 1337.1C119.902 1337 120.195 1336.94 120.489 1336.95C120.784 1336.94 121.077 1337 121.352 1337.1C121.626 1337.21 121.877 1337.37 122.089 1337.58C122.301 1337.78 122.471 1338.03 122.589 1338.3C122.706 1338.57 122.769 1338.86 122.774 1339.15Z" fill="#4F4F4F"/>
<path d="M424.15 1325.79C424.145 1326.08 424.082 1326.37 423.965 1326.64C423.848 1326.91 423.678 1327.16 423.466 1327.36C423.254 1327.57 423.004 1327.73 422.73 1327.84C422.456 1327.95 422.163 1328 421.868 1327.99C421.573 1328 421.281 1327.95 421.006 1327.84C420.732 1327.73 420.482 1327.57 420.27 1327.36C420.058 1327.16 419.888 1326.91 419.771 1326.64C419.654 1326.37 419.591 1326.08 419.586 1325.79C419.586 1324.57 420.606 1323.58 421.868 1323.58C423.13 1323.58 424.15 1324.57 424.15 1325.79Z" fill="#4F4F4F"/>
<path d="M531.567 1143.21C531.562 1143.51 531.499 1143.8 531.382 1144.07C531.265 1144.34 531.095 1144.58 530.883 1144.79C530.671 1144.99 530.421 1145.15 530.147 1145.26C529.872 1145.37 529.58 1145.42 529.285 1145.42C528.023 1145.42 527 1144.43 527 1143.21C527 1141.99 528.023 1141.01 529.285 1141.01C530.544 1141.01 531.567 1141.99 531.567 1143.21Z" fill="#4F4F4F"/>
<path d="M1427.44 1339.15C1427.44 1339.45 1427.37 1339.74 1427.26 1340.01C1427.14 1340.28 1426.97 1340.52 1426.76 1340.73C1426.55 1340.93 1426.3 1341.1 1426.02 1341.2C1425.75 1341.31 1425.45 1341.36 1425.16 1341.36C1423.9 1341.36 1422.88 1340.37 1422.88 1339.15C1422.88 1337.94 1423.9 1336.95 1425.16 1336.95C1425.45 1336.94 1425.75 1337 1426.02 1337.1C1426.3 1337.21 1426.55 1337.37 1426.76 1337.58C1426.97 1337.78 1427.14 1338.03 1427.26 1338.3C1427.37 1338.57 1427.44 1338.86 1427.44 1339.15Z" fill="#4F4F4F"/>
<path d="M308.036 1385.57C308.036 1388.92 305.225 1391.63 301.756 1391.63C298.29 1391.63 295.479 1388.92 295.479 1385.57C295.479 1382.22 298.29 1379.5 301.756 1379.5C305.225 1379.5 308.036 1382.22 308.036 1385.57Z" fill="#4F4F4F"/>
<path d="M1090.84 51.3543C1090.83 51.9494 1090.58 52.5157 1090.15 52.929C1089.72 53.3423 1089.15 53.5688 1088.55 53.5588C1087.96 53.5688 1087.38 53.3422 1086.96 52.9288C1086.53 52.5155 1086.28 51.9491 1086.27 51.3543C1086.27 50.1356 1087.29 49.1468 1088.55 49.1468C1089.82 49.1468 1090.84 50.1356 1090.84 51.3543Z" fill="#4F4F4F"/>
<path d="M1328.29 98.6069C1328.28 98.9016 1328.22 99.1924 1328.1 99.4628C1327.98 99.7331 1327.81 99.9776 1327.6 100.182C1327.39 100.387 1327.14 100.548 1326.87 100.656C1326.59 100.764 1326.3 100.817 1326 100.812C1325.71 100.817 1325.42 100.764 1325.14 100.656C1324.87 100.548 1324.62 100.387 1324.41 100.182C1324.19 99.9776 1324.03 99.7331 1323.91 99.4628C1323.79 99.1924 1323.73 98.9016 1323.72 98.6069C1323.73 98.3123 1323.79 98.0215 1323.91 97.7511C1324.03 97.4808 1324.19 97.2363 1324.41 97.0315C1324.62 96.8267 1324.87 96.6658 1325.14 96.5578C1325.42 96.4499 1325.71 96.3971 1326 96.4024C1326.3 96.3971 1326.59 96.4499 1326.87 96.5578C1327.14 96.6658 1327.39 96.8267 1327.6 97.0315C1327.81 97.2363 1327.98 97.4808 1328.1 97.7511C1328.22 98.0215 1328.28 98.3123 1328.29 98.6069Z" fill="#4F4F4F"/>
<path d="M947.649 104.672C947.649 108.02 944.838 110.736 941.372 110.736C937.903 110.736 935.092 108.02 935.092 104.672C935.092 101.32 937.903 98.6069 941.372 98.6069C944.838 98.6069 947.649 101.32 947.649 104.672Z" fill="#4F4F4F"/>
<path fill-rule="evenodd" clip-rule="evenodd" d="M543.599 0L557.191 25.3107L554.875 26.4719L541.285 1.1612L543.599 0Z" fill="#4F4F4F"/>
<path d="M495.909 174.841C495.898 175.436 495.651 176.002 495.222 176.415C494.794 176.829 494.219 177.055 493.624 177.045C493.029 177.055 492.455 176.829 492.027 176.415C491.599 176.002 491.352 175.436 491.342 174.841C491.342 173.625 492.365 172.636 493.624 172.636C494.886 172.636 495.909 173.622 495.909 174.841Z" fill="#4F4F4F"/>
<path d="M635.509 263.73C635.497 264.325 635.25 264.891 634.822 265.305C634.394 265.718 633.819 265.944 633.224 265.934C632.629 265.944 632.054 265.718 631.626 265.304C631.198 264.891 630.952 264.325 630.941 263.73C630.946 263.435 631.009 263.144 631.127 262.874C631.244 262.604 631.413 262.359 631.625 262.154C631.837 261.95 632.088 261.789 632.362 261.681C632.636 261.573 632.929 261.52 633.224 261.525C634.485 261.525 635.509 262.511 635.509 263.73Z" fill="#4F4F4F"/>
<path d="M792.069 352.745C792.069 353.964 791.046 354.95 789.784 354.95C789.489 354.955 789.197 354.902 788.922 354.794C788.648 354.687 788.398 354.526 788.186 354.321C787.974 354.116 787.804 353.872 787.687 353.601C787.57 353.331 787.507 353.04 787.502 352.745C787.507 352.451 787.57 352.16 787.687 351.89C787.804 351.619 787.974 351.375 788.186 351.17C788.398 350.965 788.648 350.804 788.922 350.696C789.197 350.588 789.489 350.536 789.784 350.541C791.046 350.541 792.069 351.527 792.069 352.745Z" fill="#4F4F4F"/>
<path d="M536.134 541.521C536.134 542.739 535.11 543.725 533.849 543.725C533.554 543.73 533.261 543.678 532.987 543.57C532.713 543.462 532.462 543.301 532.25 543.096C532.038 542.891 531.869 542.647 531.752 542.376C531.634 542.106 531.571 541.815 531.566 541.521C531.566 540.305 532.59 539.316 533.849 539.316C535.11 539.316 536.134 540.305 536.134 541.521Z" fill="#4F4F4F"/>
<path d="M122.774 79.0764C122.769 79.3712 122.706 79.6621 122.588 79.9324C122.47 80.2028 122.301 80.4473 122.088 80.652C121.876 80.8568 121.626 81.0177 121.351 81.1256C121.077 81.2335 120.784 81.2863 120.489 81.281C119.894 81.291 119.32 81.0644 118.892 80.651C118.464 80.2376 118.218 79.6713 118.207 79.0764C118.207 77.8577 119.23 76.869 120.489 76.869C121.751 76.869 122.774 77.8577 122.774 79.0764Z" fill="#4F4F4F"/>
<path d="M1427.44 79.0764C1427.43 79.6713 1427.19 80.2376 1426.76 80.651C1426.33 81.0644 1425.75 81.291 1425.16 81.281C1424.56 81.291 1423.99 81.0645 1423.56 80.6512C1423.13 80.2379 1422.89 79.6715 1422.88 79.0764C1422.88 77.8577 1423.9 76.869 1425.16 76.869C1426.42 76.869 1427.44 77.8577 1427.44 79.0764Z" fill="#4F4F4F"/>
<path d="M308.036 125.49C308.036 128.838 305.225 131.554 301.756 131.554C298.29 131.554 295.479 128.838 295.479 125.49C295.479 122.138 298.29 119.425 301.756 119.425C305.225 119.425 308.036 122.138 308.036 125.49Z" fill="#4F4F4F"/>
</svg>
